PathFileType	4	(X/Y/Z)	S:\OneDrive - The University of Tokyo\ìåëÂéˆã∆\ÉoÉCÉÅÉJ\ë™íË\hirabayashi_2\Trimmed\Trimmed_BarL20kg1.trc
DataRate	CameraRate	NumFrames	NumMarkers	Units	OrigDataRate	OrigDataStartFrame	OrigNumFrames
200.00	200.00	       29	12	mm	200.00	115	       306
Frame#	Time	BarR0			BarR50			BarR100			BarR130			BarR180			BarR230			BarL0			BarL50			BarL100			BarL130			BarL180			BarL230			
		X1	Y1	Z1	X2	Y2	Z2	X3	Y3	Z3	X4	Y4	Z4	X5	Y5	Z5	X6	Y6	Z6	X7	Y7	Z7	X8	Y8	Z8	X9	Y9	Z9	X10	Y10	Z10	X11	Y11	Z11	X12	Y12	Z12	

115	0.570	-575.96460	2755.42603	1664.47424	-604.81897	2306.23120	1662.39758	-637.28644	1851.88086	1662.07617	-660.70935	1349.38232	1662.45544	-690.06561	902.67596	1662.65625	-713.73474	454.67624	1664.09412	-1113.57190	2807.72388	1664.60242	-1140.78723	2356.12085	1663.18884	-1171.41040	1905.89636	1660.97644	-1198.81055	1404.16565	1661.34851	-1227.45483	952.67865	1663.56262	-1244.69714	506.77487	1667.53442	
116	0.575	-575.96387	2755.43018	1664.46472	-604.82184	2306.25342	1662.41492	-637.29315	1851.88232	1662.05933	-660.71680	1349.38000	1662.44788	-690.06323	902.69110	1662.66284	-713.74225	454.68011	1664.10693	-1113.53857	2807.71802	1664.59509	-1140.78442	2356.11060	1663.18298	-1171.40149	1905.89172	1660.97424	-1198.80920	1404.17322	1661.37634	-1227.47327	952.66760	1663.54272	-1244.67590	506.74631	1667.52283	
117	0.580	-575.96149	2755.42212	1664.46167	-604.84357	2306.27832	1662.41443	-637.30585	1851.89270	1662.05762	-660.73010	1349.37720	1662.45227	-690.05591	902.68365	1662.66479	-713.72888	454.69742	1664.10864	-1113.55530	2807.72046	1664.60815	-1140.79407	2356.11523	1663.17297	-1171.40076	1905.90564	1660.97205	-1198.79895	1404.15479	1661.36145	-1227.46338	952.68506	1663.55432	-1244.67590	506.74799	1667.51892	
118	0.585	-575.94836	2755.40967	1664.46521	-604.85443	2306.26245	1662.42615	-637.28589	1851.83582	1662.04895	-660.71509	1349.41138	1662.43701	-690.06305	902.68823	1662.64795	-713.73889	454.66595	1664.10107	-1113.57288	2807.73315	1664.59509	-1140.80029	2356.11206	1663.20642	-1171.41370	1905.89563	1660.96960	-1198.81055	1404.17505	1661.36792	-1227.47583	952.69757	1663.55505	-1244.68054	506.74475	1667.52844	
119	0.590	-575.96887	2755.41895	1664.46472	-604.83179	2306.23901	1662.40771	-637.30164	1851.86938	1662.06580	-660.72485	1349.39502	1662.44507	-690.05298	902.69690	1662.66663	-713.74335	454.67117	1664.10876	-1113.56482	2807.73511	1664.58948	-1140.79968	2356.12793	1663.18237	-1171.40161	1905.89246	1660.98206	-1198.81958	1404.14832	1661.37476	-1227.46289	952.68274	1663.55200	-1244.67236	506.76074	1667.52856	
120	0.595	-575.94690	2755.39819	1664.47144	-604.82642	2306.23169	1662.40771	-637.25378	1851.85889	1662.08032	-660.69324	1349.38281	1662.45325	-690.04938	902.68842	1662.66882	-713.72821	454.68866	1664.10486	-1113.50427	2807.72803	1664.59717	-1140.80750	2356.13159	1663.19080	-1171.40955	1905.88269	1660.95776	-1198.81995	1404.17004	1661.37756	-1227.46228	952.66772	1663.54089	-1244.68030	506.74850	1667.52966	
121	0.600	-575.96112	2755.43579	1664.46582	-604.79498	2306.20068	1662.40747	-637.24652	1851.86621	1662.06519	-660.70575	1349.38513	1662.45605	-690.05054	902.68115	1662.66077	-713.73511	454.67566	1664.10730	-1113.53076	2807.73486	1664.58728	-1140.78430	2356.14380	1663.18420	-1171.40796	1905.89734	1660.97107	-1198.82581	1404.15051	1661.36877	-1227.46533	952.70453	1663.55261	-1244.68005	506.76651	1667.52319	
122	0.605	-575.96960	2755.42310	1664.47119	-604.82025	2306.22437	1662.40259	-637.28369	1851.88904	1662.07178	-660.72144	1349.36755	1662.45996	-690.05115	902.69208	1662.65808	-713.73682	454.66791	1664.10400	-1113.55225	2807.73242	1664.60254	-1140.77576	2356.13379	1663.18042	-1171.41357	1905.86633	1660.98071	-1198.81030	1404.16272	1661.37366	-1227.46875	952.69128	1663.55151	-1244.69153	506.75580	1667.51782	
123	0.610	-575.95844	2755.42578	1664.47607	-604.80432	2306.25244	1662.40930	-637.29456	1851.86816	1662.05090	-660.71710	1349.37939	1662.46130	-690.05792	902.70764	1662.66064	-713.73901	454.69595	1664.10742	-1113.55566	2807.72974	1664.59924	-1140.78601	2356.11035	1663.21973	-1171.40503	1905.86536	1660.98669	-1198.80908	1404.14429	1661.39221	-1227.47070	952.67133	1663.54907	-1244.67627	506.74084	1667.52283	
124	0.615	-575.96698	2755.42993	1664.47217	-604.83502	2306.24829	1662.41565	-637.28839	1851.89575	1662.06262	-660.70441	1349.38062	1662.45435	-690.04944	902.67883	1662.66479	-713.74371	454.67801	1664.11609	-1113.54553	2807.72925	1664.58594	-1140.78137	2356.11792	1663.19006	-1171.41565	1905.88428	1660.97522	-1198.81946	1404.13989	1661.37415	-1227.46057	952.68469	1663.55481	-1244.68091	506.72726	1667.52332	
125	0.620	-575.95837	2755.42017	1664.47168	-604.81213	2306.26318	1662.40222	-637.28107	1851.85059	1662.06091	-660.73584	1349.38953	1662.44568	-690.02826	902.68335	1662.64673	-713.74854	454.69614	1664.10291	-1113.52234	2807.73242	1664.58887	-1140.79028	2356.11060	1663.20557	-1171.40979	1905.89795	1660.97876	-1198.81787	1404.15698	1661.37329	-1227.46704	952.68420	1663.56995	-1244.69592	506.75946	1667.52612	
126	0.625	-575.96002	2755.41577	1664.47412	-604.79340	2306.24048	1662.41125	-637.28552	1851.88367	1662.05798	-660.68475	1349.37891	1662.46741	-690.07025	902.69299	1662.64990	-713.73376	454.67212	1664.11194	-1113.58350	2807.71973	1664.61169	-1140.80664	2356.10620	1663.20386	-1171.42078	1905.89783	1660.97595	-1198.81958	1404.14587	1661.37805	-1227.47339	952.68457	1663.55493	-1244.67578	506.73209	1667.51843	
127	0.630	-575.97174	2755.41260	1664.47168	-604.84308	2306.23267	1662.41748	-637.30249	1851.88477	1662.08154	-660.69366	1349.38696	1662.45215	-690.03949	902.70264	1662.64905	-713.73029	454.69363	1664.09106	-1113.56311	2807.73267	1664.60864	-1140.80640	2356.14185	1663.19470	-1171.41431	1905.89050	1660.98096	-1198.80896	1404.14917	1661.36719	-1227.46204	952.67914	1663.55835	-1244.67456	506.74225	1667.52576	
128	0.635	-575.96075	2755.40625	1664.46216	-604.80707	2306.24683	1662.41772	-637.26166	1851.86035	1662.07520	-660.71094	1349.38574	1662.45959	-690.03821	902.68164	1662.66797	-713.74097	454.67993	1664.10620	-1113.53589	2807.72144	1664.60352	-1140.79663	2356.10645	1663.20007	-1171.40613	1905.90027	1660.98901	-1198.79675	1404.14551	1661.37817	-1227.46558	952.68304	1663.54395	-1244.66504	506.76080	1667.50989	
129	0.640	-575.96545	2755.41748	1664.47070	-604.81873	2306.23926	1662.41016	-637.27881	1851.85608	1662.05261	-660.70331	1349.40210	1662.44141	-690.06567	902.67761	1662.65051	-713.73651	454.66614	1664.09985	-1113.57983	2807.73535	1664.59827	-1140.79114	2356.13721	1663.18396	-1171.40295	1905.89453	1660.96057	-1198.80212	1404.14661	1661.36523	-1227.47156	952.68182	1663.53955	-1244.67346	506.76059	1667.52148	
130	0.645	-575.96613	2755.41406	1664.46533	-604.86298	2306.27026	1662.42749	-637.27289	1851.83484	1662.06567	-660.71759	1349.38977	1662.46204	-690.05969	902.68677	1662.64648	-713.73212	454.68179	1664.10962	-1113.56494	2807.71924	1664.58997	-1140.79321	2356.12842	1663.18127	-1171.40063	1905.91150	1660.97473	-1198.80286	1404.15833	1661.37341	-1227.46765	952.68604	1663.55017	-1244.69104	506.74432	1667.51575	
131	0.650	-575.96417	2755.41992	1664.46851	-604.83221	2306.25171	1662.42627	-637.26300	1851.89038	1662.05762	-660.69910	1349.37646	1662.45654	-690.05542	902.68036	1662.65894	-713.75342	454.67331	1664.11377	-1113.55408	2807.73242	1664.59924	-1140.77478	2356.12085	1663.17554	-1171.41711	1905.88806	1660.96277	-1198.79907	1404.19031	1661.37720	-1227.45337	952.68463	1663.54272	-1244.66846	506.72397	1667.50745	
132	0.655	-575.95929	2755.43042	1664.47766	-604.82935	2306.24902	1662.40881	-637.25684	1851.85461	1662.07239	-660.70996	1349.36841	1662.46570	-690.04352	902.70898	1662.64685	-713.74139	454.70047	1664.11255	-1113.54248	2807.73486	1664.58960	-1140.77771	2356.11987	1663.19141	-1171.42017	1905.89539	1660.96875	-1198.80334	1404.15662	1661.37903	-1227.46960	952.68561	1663.56531	-1244.69800	506.74167	1667.53638	
133	0.660	-575.96173	2755.41528	1664.47485	-604.81635	2306.25049	1662.41772	-637.30359	1851.86267	1662.05469	-660.69971	1349.40173	1662.45239	-690.06384	902.69641	1662.66284	-713.72717	454.69138	1664.11023	-1113.59033	2807.73315	1664.58020	-1140.80176	2356.13696	1663.19397	-1171.41516	1905.89526	1660.96936	-1198.82520	1404.13770	1661.36792	-1227.48547	952.67303	1663.54907	-1244.69324	506.73001	1667.52454	
134	0.665	-575.98248	2755.44336	1664.47925	-604.82605	2306.25806	1662.40430	-637.30048	1851.93994	1662.05298	-660.71600	1349.38220	1662.44934	-690.05438	902.68494	1662.66406	-713.74829	454.66827	1664.10400	-1113.54492	2807.72876	1664.59888	-1140.78674	2356.11255	1663.19629	-1171.40112	1905.89246	1660.98254	-1198.84021	1404.16150	1661.34863	-1227.46216	952.69244	1663.53564	-1244.70154	506.75500	1667.52368	
135	0.670	-575.96234	2755.42896	1664.47925	-604.81061	2306.28223	1662.40222	-637.28467	1851.88757	1662.06421	-660.71674	1349.38611	1662.45898	-690.06396	902.69153	1662.66028	-713.74451	454.65356	1664.11279	-1113.55591	2807.70801	1664.60144	-1140.80005	2356.14453	1663.17859	-1171.39929	1905.90515	1660.97095	-1198.79883	1404.16992	1661.37781	-1227.45178	952.69592	1663.56604	-1244.70874	506.77588	1667.52661	
136	0.675	-575.96576	2755.42236	1664.47009	-604.83087	2306.25562	1662.43506	-637.27179	1851.86365	1662.06116	-660.70642	1349.37695	1662.46277	-690.05096	902.65979	1662.65344	-713.73901	454.69449	1664.11804	-1113.53223	2807.72925	1664.59717	-1140.79199	2356.13062	1663.18811	-1171.42871	1905.88879	1660.95483	-1198.80664	1404.16418	1661.36987	-1227.46545	952.68091	1663.57007	-1244.69434	506.75394	1667.52393	
137	0.680	-575.96954	2755.41504	1664.46985	-604.80609	2306.23193	1662.41528	-637.29657	1851.88379	1662.06506	-660.70917	1349.40442	1662.44885	-690.05261	902.68683	1662.66882	-713.73389	454.69452	1664.11340	-1113.54675	2807.72827	1664.60413	-1140.79126	2356.12988	1663.18274	-1171.40332	1905.87512	1660.97607	-1198.78101	1404.17200	1661.37952	-1227.47607	952.67572	1663.55493	-1244.68811	506.75580	1667.51733	
138	0.685	-575.96808	2755.43530	1664.48291	-604.85608	2306.25049	1662.41492	-637.27960	1851.86499	1662.08411	-660.69666	1349.36621	1662.46521	-690.03796	902.66632	1662.66125	-713.73279	454.69269	1664.11536	-1113.52795	2807.72388	1664.60608	-1140.79614	2356.11401	1663.18506	-1171.41785	1905.89246	1660.96069	-1198.80334	1404.16772	1661.36670	-1227.47644	952.67572	1663.56152	-1244.70203	506.76971	1667.52966	
139	0.690	-575.96472	2755.42432	1664.47546	-604.81897	2306.25244	1662.42981	-637.28217	1851.84619	1662.07373	-660.69189	1349.41064	1662.45398	-690.05072	902.70605	1662.65698	-713.74591	454.68240	1664.10828	-1113.51953	2807.70972	1664.61743	-1140.78943	2356.13062	1663.20459	-1171.41577	1905.91077	1660.97632	-1198.80896	1404.16492	1661.35742	-1227.45728	952.69110	1663.57129	-1244.68542	506.74982	1667.52222	
140	0.695	-575.96259	2755.41992	1664.47778	-604.78540	2306.25610	1662.41064	-637.25964	1851.87610	1662.07300	-660.70135	1349.36792	1662.45044	-690.05988	902.67078	1662.64331	-713.72778	454.68948	1664.11646	-1113.55872	2807.71875	1664.58948	-1140.79480	2356.13452	1663.18420	-1171.41235	1905.87122	1660.96667	-1198.82397	1404.13550	1661.34192	-1227.46521	952.67017	1663.54077	-1244.68542	506.75671	1667.52136	
141	0.700	-575.95197	2755.41870	1664.46716	-604.76660	2306.25806	1662.38867	-637.25940	1851.87085	1662.07092	-660.69781	1349.38147	1662.45020	-690.04266	902.67218	1662.65491	-713.72607	454.67847	1664.10815	-1113.54773	2807.71460	1664.59399	-1140.79309	2356.12964	1663.18823	-1171.42249	1905.89954	1660.96216	-1198.81030	1404.15479	1661.35266	-1227.46362	952.69250	1663.56140	-1244.70239	506.76407	1667.52002	
142	0.705	-575.96155	2755.41772	1664.47485	-604.78033	2306.24829	1662.40125	-637.25665	1851.84473	1662.06812	-660.70313	1349.38586	1662.44641	-690.05127	902.69305	1662.66162	-713.72784	454.67740	1664.11169	-1113.56274	2807.72754	1664.59497	-1140.81653	2356.13428	1663.18799	-1171.41858	1905.89441	1660.96838	-1198.79053	1404.15625	1661.37549	-1227.44824	952.68988	1663.55066	-1244.67883	506.74454	1667.52820	
143	0.710	-575.95813	2755.42310	1664.47522	-604.83978	2306.25000	1662.42969	-637.28131	1851.88989	1662.05396	-660.68896	1349.38635	1662.44202	-690.04834	902.68042	1662.64160	-713.72595	454.69360	1664.10938	-1113.50110	2807.72437	1664.60950	-1140.78723	2356.09229	1663.20227	-1171.40649	1905.89380	1660.96545	-1198.81091	1404.16724	1661.37170	-1227.46289	952.69666	1663.52576	-1244.69666	506.76672	1667.52173	
